<svg width="34" height="33" viewBox="0 0 34 33" fill="none" xmlns="http://www.w3.org/2000/svg">
<path fill-rule="evenodd" clip-rule="evenodd" d="M16.0819 6.56481C16.2401 6.24447 16.6126 6.09388 16.8917 6.38953C16.9284 6.43664 16.987 6.52769 17.0384 6.54591C17.1793 6.55232 17.2418 6.52043 17.3708 6.49491C17.9256 6.38519 18.8576 6.37939 19.355 6.66766C19.6003 6.8098 19.7629 7.0482 19.9468 7.23252C20.0364 7.32237 20.2731 7.41778 20.4017 7.53478C20.7971 7.87547 20.9207 8.38272 21.1523 8.80592C21.3327 9.13575 21.5267 9.21845 21.6106 9.64431C21.7595 10.4002 21.5952 11.0251 21.0232 11.566C20.9348 11.6495 20.7509 11.7276 20.708 11.8401C20.6941 11.8985 20.7169 12.0909 20.724 12.1626C20.9662 12.2054 21.0979 12.2219 21.2801 12.3982C21.4937 12.6049 21.465 12.9317 21.1913 13.0667C20.9684 13.1766 20.6024 13.1818 20.3473 13.228C20.4255 13.3331 20.6207 13.5511 20.6637 13.6479C20.9606 14.3172 20.7538 15.0365 20.519 15.6825C20.3851 16.0503 20.5468 16.6573 20.1141 16.9155C19.7626 17.1542 19.3431 17.1734 18.9314 17.1151C18.6486 17.0754 18.5605 16.9362 18.5787 16.6829L18.5603 16.668C18.4664 16.7275 18.284 17.0124 18.2278 17.1125C17.9252 17.5121 17.8039 17.7127 17.2665 17.7351C16.961 17.7414 16.6745 17.6096 16.5296 17.3361C16.5111 17.3011 16.5115 17.302 16.4777 17.2837C16.3934 17.3478 16.3767 17.4272 16.317 17.5163C16.1894 17.7072 16.0721 17.7381 15.8654 17.7902C15.5304 18.5185 15.1841 19.2418 14.8263 19.9597C14.5392 20.5297 14.1461 21.3833 13.6178 21.7766C13.3471 21.9781 12.6546 21.8824 12.3637 21.7239C11.9295 21.4875 11.3761 21.0842 11.0951 20.6769C11.2519 20.4605 11.5216 20.2562 11.7169 20.0697C12.1306 19.6751 12.5789 19.3127 12.9236 18.8561C12.9817 18.7793 13.0949 18.6522 13.1162 18.5622C13.035 18.5811 12.8716 18.745 12.7963 18.8032C11.9574 19.4517 11.1237 20.591 10.1555 21.0191C8.77177 21.6311 7.99577 19.6047 7.46739 18.7291C7.2293 18.3344 6.88878 17.6909 6.70197 17.2522C6.37872 17.4559 5.96107 17.5935 5.60344 17.696C5.23662 17.8012 3.30904 16.8361 3.27088 16.5679C3.38953 16.4863 4.30199 16.3601 4.51097 16.3054C4.74151 16.2451 5.05006 16.186 5.28797 16.1036C5.78729 15.9304 6.26164 15.7372 6.73944 15.5138C7.08567 15.3577 7.41319 15.1368 7.78097 15.0337C7.80187 15.0323 7.85989 15.0073 7.88214 15.0118C8.63413 15.165 8.33508 15.9552 8.40806 16.4694C8.44328 16.7175 8.63235 16.8756 8.55482 17.1566C8.44415 17.5577 8.1279 17.8729 8.07913 18.2878C8.03444 18.8537 8.00914 19.0815 8.39594 19.5481C8.59183 19.7845 8.65331 19.6916 8.84266 19.7776C9.14779 19.916 9.10181 19.9744 9.46502 20.0115C9.71254 19.8051 9.67712 19.6331 9.80049 19.5173C10.1528 19.1865 10.3741 18.7307 10.4396 18.2529C10.4833 17.9331 10.424 17.5499 10.6041 17.2398C10.68 17.1092 10.7493 16.946 10.866 16.8333C11.1258 16.5864 11.3429 16.4379 11.4989 16.1056C11.5806 15.9812 11.5773 15.4423 11.694 15.3751C11.9338 15.237 12.3891 15.0926 12.6143 14.9121C12.8925 14.6892 13.6089 14.1121 13.6709 13.795C13.5954 13.7791 13.4644 13.9805 13.4083 14.0436C12.995 14.508 12.3725 14.8904 11.7912 15.1195C11.578 15.1656 11.4892 15.2519 11.4669 15.487C11.4178 16.0047 11.2359 16.33 10.7634 16.6078C10.6707 16.598 10.5797 16.5765 10.4925 16.5443C10.083 16.3947 9.62393 16.1247 9.21238 15.9534C9.12499 15.917 9.00441 15.7943 8.9928 15.6938C8.92139 15.0759 9.33675 14.3825 9.78963 13.9758C9.98765 13.8052 10.2481 13.6833 10.411 13.5411C10.5016 13.4621 10.6624 13.0906 10.7504 12.9644C11.218 12.2933 12.5025 11.2627 13.2942 11.1012L13.2753 11.0612C13.1339 11.0445 12.5722 11.3502 12.3565 11.3351C12.2958 11.4256 11.7071 11.8751 11.5789 11.9786C11.6639 11.2827 11.9295 11.1608 12.3981 10.7912C12.4901 10.7186 12.8581 10.021 12.9455 9.87566C13.1896 9.46947 13.0686 8.92508 13.5162 8.56342C13.8185 8.26098 14.3252 7.93562 14.7338 7.80092C14.8227 7.77161 15.3098 7.76151 15.4312 7.75722C15.6517 7.49944 15.8338 7.29636 16.0679 7.04803C16.0221 7.03688 15.976 7.0275 15.9295 7.01991C15.5032 6.95437 14.8897 7.08128 14.4805 7.20119C12.4349 7.80059 11.7568 9.36734 10.7671 10.9673C10.2807 11.7699 9.69157 12.5088 9.01398 13.1663C8.81479 13.3603 8.61686 13.5562 8.38177 13.7202C7.50251 14.3339 6.40676 14.7112 5.31843 14.5706C5.22669 14.5561 5.13421 14.5294 5.04571 14.5055C4.73659 14.4221 4.6792 14.3558 4.77102 14.0591C5.11488 14.0487 5.46301 14.1561 5.80625 14.1503C6.50015 14.1386 7.05254 13.9564 7.65201 13.6362C8.69967 13.0768 9.58215 12.0019 10.1945 11.0114C10.8672 9.92326 11.2864 8.97481 12.2441 8.04296C13.0959 7.21421 13.9124 6.72573 15.1399 6.58808C15.4378 6.55467 15.7783 6.56544 16.0819 6.56481ZM12.0304 16.703C11.6856 16.8805 11.4644 17.3108 11.6792 17.6604C11.7709 17.8073 11.9203 17.9113 12.0927 17.9481C12.1321 17.9561 12.1733 17.9605 12.2134 17.9642L12.2443 17.9386C12.1685 17.8311 11.8721 17.7642 11.8169 17.6486C11.6692 17.3385 11.7616 16.9381 12.0589 16.7568L12.0812 16.7435L12.0733 16.7181L12.0304 16.703ZM12.187 16.6992L12.1838 16.7264C12.2446 16.7516 12.3428 16.7759 12.3837 16.7972C12.5594 16.8884 12.6699 17.0485 12.7948 17.1745C12.8859 16.9146 12.4371 16.6768 12.187 16.6992ZM14.4872 16.3986C14.571 16.4578 14.6357 16.4711 14.7377 16.4703L14.7257 16.4169C14.6406 16.3618 14.5673 16.362 14.4664 16.3563L14.4872 16.3986ZM19.3135 13.8929C19.2355 13.9664 19.1906 14.268 19.1519 14.3877C18.9669 14.9607 18.6756 15.4692 18.3259 15.9607C18.2655 16.0457 18.2235 16.1012 18.1929 16.2026C18.2846 16.16 18.4194 15.9875 18.4898 15.9063C18.7294 15.4778 19.4546 14.356 19.3369 13.9139L19.3135 13.8929ZM20.1652 13.4581C20.0522 13.5724 20.0159 13.7517 19.966 13.9066C19.7481 14.5958 19.4131 15.2445 18.9749 15.8254L18.9763 15.8578L18.9981 15.8599C19.5181 15.3273 20.0097 14.215 20.1996 13.5102C20.183 13.4686 20.1971 13.4829 20.1652 13.4581ZM15.5288 13.8685C15.4032 14.1355 15.3137 14.5809 15.1941 14.8806C15.118 15.0715 14.9491 15.4108 14.9089 15.5736L14.9264 15.607L14.9748 15.6216C15.1315 15.2923 15.5906 14.224 15.5721 13.9093C15.5491 13.8788 15.5594 13.883 15.5288 13.8685ZM14.1048 11.6141C14.1711 11.9469 14.4515 12.4389 14.5352 12.7945C14.5973 13.0583 14.7986 13.3129 14.7593 13.6167C14.736 14.1943 14.4882 14.7457 14.223 15.2537C14.1981 15.3015 14.1333 15.3887 14.181 15.4223L14.242 15.3898C14.5679 15.0521 14.8563 14.0435 14.9124 13.558C14.8928 13.3175 14.7281 13.0496 14.6461 12.8305C14.5317 12.5246 14.4433 12.2452 14.3201 11.9469C14.2791 11.8475 14.2022 11.6563 14.1048 11.6141ZM16.4425 13.8031C16.5493 13.9884 17.1025 14.1461 17.3049 14.1665C17.4823 14.207 18.3428 14.29 18.4557 14.1896L18.4257 14.1712C18.2842 14.1749 17.3843 14.1277 17.3621 14.1352C17.1737 14.0613 16.9846 14.0118 16.7919 13.9339C16.6863 13.8911 16.5535 13.8123 16.4586 13.792L16.4425 13.8031ZM20.5019 8.69154C20.1435 8.57848 18.9155 8.57126 18.4983 8.60252C16.7016 8.7956 16.3951 11.6122 18.2737 11.8246C18.4818 11.8841 19.4548 11.8263 19.7422 11.8264C20.21 11.8179 20.6919 11.6498 21.0116 11.3162C21.5963 10.7058 21.6563 9.53267 20.9743 8.95562C20.8362 8.838 20.6758 8.74824 20.5019 8.69154Z" fill="white"/>
<path d="M15.6787 0.0295748C24.8725 -0.507299 32.771 6.32956 33.3199 15.2992C33.8685 24.2687 26.8594 31.9737 17.6654 32.5074C8.47382 33.041 0.578718 26.205 0.0301379 17.2374C-0.518422 8.27008 6.48724 0.566311 15.6787 0.0295748ZM17.0991 31.863C25.9131 31.6372 32.8728 24.4866 32.6481 15.8872C32.4236 7.28784 25.0996 0.492357 16.2851 0.704841C7.46093 0.917561 0.486287 8.07246 0.711157 16.6813C0.936027 25.29 8.27517 32.0891 17.0991 31.863Z" fill="white"/>
<path d="M13.1838 9.90518C13.3482 10.0699 13.7692 10.3702 13.9686 10.5168C13.4832 10.7584 13.6543 10.8204 13.3913 11.1141C13.3237 11.128 13.355 11.1323 13.2942 11.1012L13.2753 11.0612C13.1339 11.0445 12.5722 11.3502 12.3565 11.3351C12.413 11.0681 13.0081 10.1791 13.1838 9.90518Z" fill="white"/>
<path d="M18.0593 17.0693L18.107 17.0546L18.1221 17.0644C18.1635 17.0911 18.1784 17.1053 18.2278 17.1125C17.9252 17.5121 17.8039 17.7127 17.2665 17.7351C17.2812 17.6846 17.2766 17.6419 17.2756 17.5894C17.683 17.5404 17.7884 17.3593 18.0593 17.0693Z" fill="white"/>
<path d="M17.2756 17.5894C17.2641 17.5164 17.3685 17.3772 17.4183 17.3255C17.5838 17.1531 17.8214 17.0756 18.0593 17.0693C17.7884 17.3593 17.683 17.5404 17.2756 17.5894Z" fill="white"/>
<path d="M16.0819 6.56481C16.2401 6.24447 16.6126 6.09388 16.8917 6.38953L16.7691 6.42328C16.5877 6.29568 16.4797 6.35058 16.3276 6.48532C16.2012 6.47133 16.1838 6.49561 16.0819 6.56481Z" fill="white"/>
<path d="M16.3276 6.48532C16.4797 6.35058 16.5877 6.29568 16.7691 6.42328C16.6824 6.54197 16.5699 6.4723 16.4282 6.60739C16.4324 6.58171 16.4231 6.55569 16.4035 6.53809C16.3839 6.52051 16.3565 6.51369 16.3306 6.51994L16.3276 6.48532Z" fill="white"/>
<path d="M16.3306 6.51994C16.3565 6.51369 16.3839 6.52051 16.4035 6.53809C16.4231 6.55569 16.4324 6.58171 16.4282 6.60739C16.422 6.64573 16.3876 6.67365 16.3478 6.67271C16.308 6.67178 16.2751 6.64225 16.2707 6.60365C16.2664 6.56505 16.292 6.52926 16.3306 6.51994Z" fill="white"/>
<path d="M18.4983 8.60252C18.9155 8.57126 20.1435 8.57848 20.5019 8.69154C20.6758 8.74824 20.8362 8.838 20.9743 8.95562C21.6563 9.53267 21.5963 10.7058 21.0116 11.3162C20.6919 11.6498 20.21 11.8179 19.7422 11.8264C19.4548 11.8263 18.4818 11.8841 18.2737 11.8246C16.3951 11.6122 16.7016 8.7956 18.4983 8.60252ZM18.3942 9.46181L18.4186 9.45707C18.8723 9.37326 19.5016 9.36184 19.9613 9.35411C20.1516 9.3509 20.4188 9.43343 20.4529 9.42494C20.4009 9.20978 19.271 9.11103 19.0533 9.14902C18.6605 9.19155 18.2074 9.20923 17.9492 9.53808C17.8106 9.71452 17.7025 10.0128 17.7247 10.2341C17.7698 10.1905 17.7815 10.138 17.8045 10.0765C17.9317 9.7359 18.0595 9.60331 18.3942 9.46181Z" fill="white"/>
<path d="M18.4983 8.60252C18.9155 8.57126 20.1435 8.57848 20.5019 8.69154C20.6758 8.74824 20.8362 8.838 20.9743 8.95562C21.6563 9.53267 21.5963 10.7058 21.0116 11.3162C20.6919 11.6498 20.21 11.8179 19.7422 11.8264C19.4548 11.8263 18.4818 11.8841 18.2737 11.8246C18.2624 11.7855 18.2572 11.7714 18.2425 11.7342C18.2749 11.661 18.2858 11.6473 18.29 11.5699C18.2677 11.5043 18.2397 11.4946 18.181 11.455L18.2463 11.4266C18.6595 11.4662 19.1855 11.4313 19.6088 11.4452C20.0099 11.4544 20.3072 11.4406 20.6065 11.1424C21.0626 10.688 21.1525 9.7191 20.6498 9.27551C20.1971 8.87595 19.192 8.94727 18.6115 8.98156C18.5827 8.92212 18.5863 8.92149 18.5375 8.8779C18.4892 8.87353 18.4501 8.83743 18.443 8.79049C18.4358 8.74356 18.4626 8.69798 18.5075 8.6801C18.5031 8.65305 18.5011 8.62973 18.4983 8.60252Z" fill="white"/>
<path d="M18.5075 8.6801C18.548 8.66404 18.5946 8.67405 18.6244 8.70529C18.6542 8.73652 18.6613 8.78249 18.6419 8.82081C18.6226 8.85914 18.5811 8.88185 18.5375 8.8779C18.4892 8.87353 18.4501 8.83743 18.443 8.79049C18.4358 8.74356 18.4626 8.69798 18.5075 8.6801Z" fill="white"/>
<path d="M20.0826 11.4901C20.2398 11.5313 20.2314 11.6486 20.1695 11.764C20.0887 11.7344 20.0705 11.7292 20.0375 11.6506C20.0387 11.5703 20.0453 11.5646 20.0826 11.4901Z" fill="white"/>
<path d="M21.2498 10.1962C21.3028 10.1843 21.356 10.2146 21.3715 10.2654C21.3869 10.3162 21.3591 10.37 21.3081 10.388C21.2722 10.4007 21.2321 10.393 21.2039 10.3679C21.1756 10.3428 21.1639 10.3045 21.1736 10.2684C21.1833 10.2324 21.2127 10.2046 21.2498 10.1962Z" fill="white"/>
<path d="M20.8888 9.1338C20.937 9.10989 20.9959 9.12711 21.0225 9.17293C21.0493 9.21875 21.0342 9.27693 20.9886 9.30503C20.9572 9.32438 20.9173 9.32528 20.8848 9.30741C20.8526 9.28951 20.8328 9.25573 20.8336 9.21945C20.8344 9.18317 20.8556 9.15028 20.8888 9.1338Z" fill="white"/>
<path d="M20.6607 11.2365C20.7461 11.2407 20.7522 11.2422 20.8022 11.3022C20.8141 11.3801 20.8034 11.3946 20.7776 11.4725C20.705 11.449 20.6845 11.4406 20.6425 11.3813C20.6264 11.3068 20.6331 11.3058 20.6607 11.2365Z" fill="white"/>
<path d="M18.2737 11.8246C16.3951 11.6122 16.7016 8.7956 18.4983 8.60252C18.5011 8.62973 18.5031 8.65305 18.5075 8.6801C18.4626 8.69798 18.4358 8.74356 18.443 8.79049C18.4501 8.83743 18.4892 8.87353 18.5375 8.8779C18.5863 8.92149 18.5827 8.92212 18.6115 8.98156C18.2447 9.06016 17.9093 9.21605 17.7094 9.53794C17.3327 10.145 17.4175 11.2349 18.2463 11.4266L18.181 11.455C18.2397 11.4946 18.2677 11.5043 18.29 11.5699C18.2858 11.6473 18.2749 11.661 18.2425 11.7342C18.2572 11.7714 18.2624 11.7855 18.2737 11.8246Z" fill="white"/>
<path d="M18.181 11.455C18.2397 11.4946 18.2677 11.5043 18.29 11.5699C18.2858 11.6473 18.2749 11.661 18.2425 11.7342C18.1989 11.7273 18.1925 11.7243 18.15 11.7114C18.0635 11.6025 18.0901 11.5445 18.181 11.455Z" fill="white"/>
<path d="M17.224 10.0738C17.2595 10.0529 17.3043 10.0538 17.3387 10.076C17.3734 10.0983 17.3919 10.138 17.3863 10.1781C17.3804 10.2182 17.3516 10.2516 17.3121 10.2638C17.2601 10.2798 17.2041 10.2555 17.1815 10.207C17.1591 10.1585 17.1773 10.1013 17.224 10.0738Z" fill="white"/>
<path d="M15.1468 8.63326C15.3376 8.12402 15.5761 7.86662 15.9453 7.47172C16.6272 6.7424 17.4135 6.5249 17.9397 7.55071C17.9976 7.6682 18.1088 8.12103 18.2663 8.1332C18.7482 8.1705 19.2597 8.16281 19.7444 8.14789C20.1262 8.13615 20.0772 7.80093 20.0653 7.54634C20.4591 7.85594 20.6004 8.10508 20.8058 8.55839C20.6708 8.5164 20.368 8.42434 20.2417 8.41378C19.7775 8.375 18.7334 8.32496 18.3207 8.39343C18.1447 8.4234 17.9744 8.47979 17.8162 8.56059C16.8016 9.07902 16.5221 10.3772 17.0174 11.3345C17.269 11.8205 17.8263 12.0032 18.2735 12.2719C18.3447 12.3146 18.4664 12.3759 18.5146 12.4389L18.5049 12.4691C18.4239 12.4885 18.2721 12.477 18.184 12.4725C17.8267 12.4542 17.4889 12.4845 17.135 12.5324L17.0819 12.4272C16.7837 11.978 16.1326 11.4738 15.6577 11.1936L15.615 11.1683C16.192 10.955 16.335 10.5592 16.3493 9.99774C16.3619 9.50385 16.2587 8.91575 15.7359 8.69505C15.5525 8.61924 15.3446 8.62858 15.1468 8.63326Z" fill="white"/>
<path d="M15.0174 8.9867C15.7392 9.03072 16.0071 10.6236 15.023 10.934C14.221 10.8355 14.1339 9.31991 15.0174 8.9867Z" fill="white"/>
<path d="M14.8883 9.27911C15.0704 9.2633 15.1796 9.31187 15.2547 9.48822C15.4008 9.83127 15.3942 10.558 14.9817 10.719C14.485 10.6528 14.4044 9.58775 14.8883 9.27911Z" fill="white"/>
<path d="M17.7148 6.67088C18.0824 6.62921 18.7264 6.6464 19.0809 6.75701C19.2762 6.818 19.7035 7.19448 19.7126 7.4027C19.6707 7.45601 19.6987 7.43518 19.613 7.44909C19.1587 7.46631 18.704 7.47239 18.2493 7.46731C18.0407 7.21415 17.8924 6.93386 17.5985 6.75712C17.5624 6.73538 17.5671 6.73807 17.5504 6.70421C17.608 6.67275 17.6449 6.67796 17.7148 6.67088Z" fill="white"/>
<path d="M19.634 12.1785C19.897 12.1925 19.9776 12.2891 20.103 12.5071C20.2209 12.5021 20.4097 12.4738 20.5113 12.5036C20.5905 12.5715 20.6055 12.6755 20.523 12.7453C20.4372 12.8181 20.2177 12.7749 20.1115 12.7597C19.8783 13.9557 18.4968 13.1175 19.2522 12.3282C19.402 12.211 19.4508 12.2043 19.634 12.1785Z" fill="white"/>
<path d="M19.59 12.3625C20.0274 12.4832 20.0044 13.0086 19.5852 13.1491C19.349 13.1181 19.2156 12.989 19.2722 12.7392C19.3147 12.5516 19.4322 12.4618 19.59 12.3625Z" fill="white"/>
<path d="M14.8692 7.98562C15.2341 7.96144 15.1065 8.20405 15.0288 8.4126C14.7471 9.16843 14.5656 8.67704 14.2622 8.70793C14.1474 8.84923 14.3227 9.01393 14.4139 9.12766C14.3928 9.19476 14.3908 9.22311 14.3375 9.27058C14.2713 9.29186 14.2225 9.28169 14.1598 9.25449C13.8028 9.09957 14.0482 8.65485 14.1961 8.44034C14.3698 8.18828 14.5615 8.04261 14.8692 7.98562Z" fill="white"/>
<path d="M15.0591 16.4841C15.2285 16.4991 15.5261 16.5761 15.7158 16.6037C16.1356 16.6648 16.5848 16.6715 17.007 16.6282C16.9159 16.7565 16.8623 16.8147 16.7383 16.9071C16.2841 17.0561 15.3332 16.9857 14.8502 16.875C14.921 16.7159 14.9676 16.6339 15.0591 16.4841Z" fill="white"/>
<path d="M13.4693 16.3482C13.9164 16.5569 14.0633 16.6223 14.5437 16.6961C14.4674 16.887 14.4318 16.9867 14.2954 17.1446L14.1093 17.214C13.7696 17.1495 13.5321 17.0793 13.2735 16.8542C13.2974 16.6338 13.3306 16.5221 13.4693 16.3482Z" fill="white"/>
<path d="M13.562 15.5464C13.8687 15.5439 14.6445 15.7734 14.9483 15.912C15.036 15.952 15.0981 16.0075 15.1245 16.1009C15.1203 16.1692 15.105 16.1802 15.0636 16.2348C14.8445 16.3203 14.3492 16.1363 14.1104 16.0696C13.8276 15.9905 13.4821 15.8908 13.562 15.5464Z" fill="white"/>
<path d="M18.8614 13.4743C18.6256 13.2221 18.5132 13.0972 18.6129 12.7365C18.6776 12.5037 18.7923 12.1178 19.0035 11.9737C19.0749 11.9252 19.5318 11.9581 19.5832 12.0734C19.6122 12.1164 19.6257 12.128 19.634 12.1785C19.4508 12.2043 19.402 12.211 19.2522 12.3282L19.1765 12.2652C18.7617 12.6147 18.7302 12.989 18.8614 13.4743Z" fill="white"/>
<path d="M19.1765 12.2652C19.3105 12.1687 19.429 12.1315 19.5832 12.0734C19.6122 12.1164 19.6257 12.128 19.634 12.1785C19.4508 12.2043 19.402 12.211 19.2522 12.3282L19.1765 12.2652Z" fill="white"/>
<path d="M18.7312 7.65594C18.9541 7.64393 19.1843 7.64688 19.4078 7.64047C19.5433 7.6366 19.7533 7.61821 19.8186 7.75072C19.7894 7.94036 19.5814 7.95853 19.4264 7.96799C19.1353 7.96649 18.8326 7.97813 18.5414 7.9651C18.4188 7.95963 18.2006 7.81579 18.2965 7.69122C18.4196 7.63978 18.5901 7.65616 18.7312 7.65594Z" fill="white"/>
<path d="M15.4587 8.89996C15.8507 8.93388 16.0678 9.39961 16.1053 9.73676C16.1484 10.1257 16.134 10.4105 15.8794 10.7253L15.6813 10.8924C15.8807 10.2856 16.0075 9.54998 15.5546 9.01464L15.4587 8.89996Z" fill="white"/>
<path d="M12.6907 15.4208C12.7481 15.445 13.2002 15.8501 13.2989 15.9257C13.2222 16.0917 13.1709 16.2542 13.113 16.4267C12.9044 16.316 12.6258 16.0368 12.4874 15.8472C12.544 15.6731 12.6007 15.5801 12.6907 15.4208Z" fill="white"/>
<path d="M15.3441 13.0113L15.3665 13.0285C15.7742 13.3365 16.2744 13.1043 16.6946 12.9536C17.1728 12.782 17.8986 12.5665 18.3888 12.7544L18.4134 12.7897C18.4086 12.8068 18.4063 12.8411 18.387 12.8411C18.0542 12.8421 17.7775 12.811 17.4423 12.8558C16.9358 12.9233 15.9173 13.496 15.4399 13.2589C15.3777 13.2274 15.325 13.1804 15.2873 13.1227C15.307 13.0909 15.296 13.0897 15.291 13.0364L15.3441 13.0113Z" fill="white"/>
<path d="M18.4446 16.2773C18.5662 16.2531 18.6821 16.222 18.8014 16.1974C18.6929 16.4104 18.5938 16.5744 18.342 16.6391C17.9801 16.7321 17.7051 16.7743 17.476 16.4495C17.6818 16.4017 17.9553 16.3913 18.1101 16.3488C18.2471 16.3282 18.312 16.3156 18.4446 16.2773Z" fill="white"/>
<path d="M15.4309 11.3818C15.4366 11.3848 15.4424 11.3878 15.4481 11.3908L15.4763 11.4065C15.9613 11.6712 16.4589 12.215 16.9699 12.4475C17.0183 12.4695 17.0475 12.448 17.0819 12.4272L17.135 12.5324C17.0052 12.567 16.9397 12.5931 16.8165 12.6432C16.4992 12.353 15.6205 11.66 15.4309 11.3818Z" fill="white"/>
<path d="M16.8506 13.4123C17.1267 13.4703 17.3014 13.5559 17.6034 13.6075C17.7956 13.6196 17.9678 13.628 18.1617 13.624C18.342 13.6204 18.5408 13.5778 18.7014 13.6682L18.7113 13.6927C18.6571 13.7497 18.6085 13.7526 18.5222 13.7535C18.0683 13.7579 17.6302 13.7992 17.2037 13.6182C17.0624 13.5597 16.9693 13.5038 16.8506 13.4123Z" fill="white"/>
<path d="M16.8506 13.4123C17.1267 13.4703 17.3014 13.5559 17.6034 13.6075C17.372 13.6749 17.3369 13.5189 17.2037 13.6182C17.0624 13.5597 16.9693 13.5038 16.8506 13.4123Z" fill="white"/>
<path d="M14.2162 10.8911L14.2322 10.8991C14.6565 11.1161 14.9403 12.0217 15.0812 12.4662C15.0434 12.4982 15.0153 12.5154 14.9965 12.5605C14.89 12.3226 14.8022 12.0014 14.6916 11.7464C14.5479 11.4151 14.4069 11.1943 14.2162 10.8911Z" fill="white"/>
<path d="M20.7879 12.4783C21.0358 12.4684 21.0958 12.5866 20.9711 12.791C20.7965 12.7807 20.6841 12.6471 20.7879 12.4783Z" fill="white"/>
<path d="M14.9965 12.5605C15.0153 12.5154 15.0434 12.4982 15.0812 12.4662C15.1153 12.5557 15.1542 12.6673 15.1939 12.7526C15.237 12.862 15.2718 12.9173 15.3441 13.0113L15.291 13.0364C15.296 13.0897 15.307 13.0909 15.2873 13.1227C15.1998 13.0243 15.155 12.9261 15.0969 12.8105C15.0597 12.7285 15.0288 12.6445 14.9965 12.5605Z" fill="white"/>
<path d="M18.1929 16.2026C18.2846 16.16 18.4194 15.9875 18.4898 15.9063C18.4579 16.0307 18.3769 16.0926 18.3525 16.2104C18.3422 16.26 18.3469 16.2388 18.3064 16.2733L18.3251 16.2701C18.3779 16.2616 18.3981 16.2527 18.4446 16.2773C18.312 16.3156 18.2471 16.3282 18.1101 16.3488C18.1623 16.2914 18.1826 16.2789 18.1929 16.2026Z" fill="white"/>
<path d="M17.7201 13.1215C17.7995 13.1184 17.8091 13.1155 17.8835 13.1371L17.8924 13.16C17.8206 13.2085 17.7499 13.2008 17.6596 13.2054C17.5241 13.1993 17.4399 13.1882 17.3055 13.1681C17.449 13.1399 17.5745 13.1327 17.7201 13.1215Z" fill="white"/>
<path d="M14.0671 16.2526C14.1495 16.217 14.4073 16.2995 14.4664 16.3563L14.4353 16.3854C14.3208 16.3716 14.1551 16.3274 14.0671 16.2526Z" fill="white"/>
<path d="M16.2325 12.6122C16.3287 12.6417 16.4165 12.7646 16.4311 12.8606C16.3145 12.8126 16.2849 12.7211 16.2325 12.6122Z" fill="white"/>
<path d="M25.6827 16.7138C26.3573 16.5105 28.4837 16.0275 29.1075 16.3197C28.8831 16.6723 28.5554 17.1131 28.3635 17.4683C28.0346 18.0773 27.7166 18.6805 27.3804 19.2875C27.2423 19.5386 27.1063 19.7907 26.9726 20.044C26.9047 20.1742 26.7918 20.4133 26.7132 20.5269L26.686 20.5218C26.4936 20.4851 26.2144 20.3924 26.0175 20.3338C25.7549 20.2554 25.489 20.1872 25.221 20.1293C23.5219 19.7599 21.7097 20.0529 20.0464 20.4536C19.8583 20.4988 19.5153 20.6056 19.3288 20.6162C19.1996 20.6451 19.041 20.6709 18.9084 20.6972C19.0791 20.5297 19.1886 20.4581 19.3826 20.3222C19.981 19.776 20.0131 19.5707 20.2697 18.7916C20.285 18.7448 20.344 18.6355 20.3866 18.6066C20.6693 18.4141 21.0976 18.2786 21.4189 18.1378C22.7477 17.5743 24.2908 17.1198 25.6827 16.7138Z" fill="white"/>
<path d="M19.3826 20.3222C19.3496 20.4772 19.1767 20.4552 19.1634 20.5954C19.2208 20.6017 19.2176 20.603 19.2728 20.5879L19.3288 20.6162C19.1996 20.6451 19.041 20.6709 18.9084 20.6972C19.0791 20.5297 19.1886 20.4581 19.3826 20.3222Z" fill="white"/>
<path d="M14.2258 21.6975C14.7056 21.7488 15.0085 21.8365 15.5232 21.83C16.6901 21.8281 17.6765 21.5738 18.8115 21.3506C21.1773 20.8854 23.8994 19.9528 26.2491 20.9411C26.4688 21.0335 26.6856 21.1373 26.8696 21.2795C26.9015 21.318 26.9196 21.3388 26.947 21.3811C26.9366 21.4155 26.9315 21.4336 26.918 21.4672C26.3212 21.3007 25.7232 21.1727 25.1002 21.1383C24.6985 21.1166 24.3007 21.1914 23.9044 21.2277C21.1132 21.4832 18.6256 23.0521 15.759 22.6803C14.8733 22.5655 14.376 22.396 13.5637 22.0833C13.8039 21.9537 13.9936 21.8314 14.2258 21.6975Z" fill="white"/>
<path d="M24.3765 13.1238C24.3998 12.952 24.3597 12.2774 24.5321 12.267C24.6617 12.3919 24.633 12.9371 24.6353 13.1379C24.7868 13.1282 24.8973 13.1288 25.0496 13.1326C25.0545 13.2629 25.0859 13.3462 24.9815 13.4348C24.889 13.4623 24.7524 13.4398 24.6506 13.431C24.6693 13.5532 24.6683 13.7157 24.6715 13.8425C24.804 13.8311 25.1069 13.7734 25.126 13.9737C25.0595 14.1167 24.8884 14.0871 24.7604 14.0779C24.7923 14.2315 24.862 14.8471 24.8765 15.0115C25.3741 14.9652 26.1171 15.1167 26.6229 15.0994C26.655 15.2813 26.6637 15.3996 26.6703 15.5833L26.3771 15.5937L26.3763 16.3207C26.059 16.3791 25.9242 16.4175 25.6122 16.5055C25.148 16.6184 24.5746 16.804 24.113 16.9501C23.5104 17.1411 22.8173 17.3554 22.2302 17.5829C21.9059 17.6712 21.5058 17.8403 21.1593 17.9445C21.1607 17.6753 21.1605 17.4061 21.1583 17.1367C21.3822 17.0129 21.8778 16.8876 22.1469 16.8084C22.1679 16.4572 22.0981 16.0184 22.1251 15.63C22.0306 15.6486 21.92 15.6566 21.8228 15.6664C21.8242 15.5489 21.814 15.3982 21.8587 15.2961C22.0014 15.2023 23.3137 14.9055 23.5638 14.8917C23.6059 14.8894 24.0457 14.9454 24.1733 14.9492C24.1951 14.6012 24.2201 14.4308 24.3023 14.0925C24.1447 14.0983 23.9534 14.1304 23.853 13.9849C23.8643 13.7968 24.1945 13.8363 24.3188 13.8428C24.3356 13.6812 24.3446 13.5961 24.3362 13.4358C24.2132 13.443 24.1082 13.4337 23.9857 13.4255C23.9984 13.3326 24.0044 13.2184 24.0119 13.1234C24.1435 13.1283 24.2449 13.1284 24.3765 13.1238ZM23.3991 15.4978C23.3552 15.6214 23.3967 15.9406 23.4004 16.0861C23.5807 16.1323 23.6926 16.1239 23.8782 16.125C23.8881 15.9376 23.8756 15.724 23.8813 15.529C23.7107 15.5089 23.5713 15.5037 23.3991 15.4978ZM24.7227 16.1841C24.734 15.9848 24.7306 15.7836 24.7298 15.5839C24.5466 15.5881 24.345 15.5693 24.183 15.5756C24.1791 15.778 24.1812 15.9783 24.1781 16.1791C24.3698 16.1865 24.5311 16.1871 24.7227 16.1841ZM25.6547 15.6477C25.6257 15.849 25.6287 16.0266 25.646 16.2292C25.8034 16.2456 25.9703 16.2713 26.1259 16.247C26.1523 16.0836 26.1447 15.8172 26.1402 15.6464C25.977 15.6608 25.8184 15.6526 25.6547 15.6477ZM25.4689 16.2032C25.4802 16.0037 25.4785 15.8197 25.4773 15.6205C25.2788 15.594 25.1567 15.5886 24.9553 15.5849C24.9545 15.7926 24.9501 16.0115 24.9561 16.2183C25.1069 16.198 25.3135 16.1998 25.4689 16.2032Z" fill="white"/>
<path d="M12.2177 22.7869C12.3451 22.7918 12.7792 22.9249 12.9351 22.9617C14.3766 23.3007 15.9048 23.4568 17.3794 23.2928C17.869 23.2419 18.3549 23.1599 18.8336 23.0474C20.7461 22.5873 23.0678 21.631 25.0638 22.1549C25.2587 22.1954 25.3717 22.2351 25.5569 22.2998C25.5791 22.3757 25.5787 22.3802 25.5829 22.4599C25.4943 22.452 25.4026 22.4404 25.3139 22.4304C23.3677 22.4064 21.7622 23.0551 19.9609 23.6772C18.1844 24.2907 16.1759 24.3714 14.3539 23.8955C13.7234 23.7309 12.6505 23.3274 12.1687 22.8954L12.2177 22.7869Z" fill="white"/>
<path d="M25.0638 22.1549C25.2587 22.1954 25.3717 22.2351 25.5569 22.2998C25.5791 22.3757 25.5787 22.3802 25.5829 22.4599C25.4943 22.452 25.4026 22.4404 25.3139 22.4304C25.2689 22.3964 25.2034 22.3901 25.1456 22.3779C25.2322 22.3665 25.3689 22.3722 25.4108 22.3342C25.3683 22.2298 25.175 22.2546 25.0638 22.1549Z" fill="white"/>
<path d="M8.21481 18.6166C8.26046 18.3842 8.23428 18.1565 8.30879 17.929C8.41616 17.5904 8.77979 17.2062 8.71191 16.8363C8.67342 16.6265 8.79243 15.8521 9.11225 16.0229C9.34746 16.1484 10.4895 16.6174 10.5899 16.7614C10.5918 16.912 10.3735 17.2673 10.2839 17.3985C10.1794 17.3593 10.1049 17.3232 9.99327 17.318L9.97128 17.3371C10.0764 17.485 10.1724 17.4706 10.3209 17.7062C10.3755 18.2776 10.2754 18.7543 9.92091 19.225C9.77846 19.4142 9.46287 19.4036 9.4229 19.1479C9.39924 18.9965 9.65386 18.7238 9.59877 18.607C9.45078 18.6477 9.31191 19.0005 9.26448 19.1381C9.36342 19.3762 9.48496 19.3804 9.61675 19.6458C9.36163 20.2473 8.88206 19.5772 8.73452 19.282C8.7048 19.2225 8.75295 19.0451 8.70312 18.9786C8.60962 19.0069 8.53805 19.1257 8.57 19.2191C8.61543 19.3518 8.73271 19.4397 8.70738 19.5882L8.68242 19.6071C8.58927 19.5823 8.47243 19.45 8.43315 19.3733C8.37177 19.2533 8.41884 18.8422 8.36401 18.746L8.32143 18.7319L8.27312 18.756C8.24034 18.7285 8.23065 18.6658 8.21481 18.6166Z" fill="white"/>
<path d="M19.9962 17.1078C20.0304 17.1141 20.0468 17.1242 20.0794 17.1377C20.1566 17.2612 20.085 17.4927 20.0619 17.6291C20.0254 17.8444 19.8895 17.9461 19.7412 18.0936C19.8918 18.2766 19.8355 18.2877 19.8271 18.5063C19.7918 19.422 19.246 19.9964 18.3608 20.2444C18.1248 20.3104 17.7662 20.4915 17.74 20.0755C17.7271 19.8739 18.1058 19.6639 18.2487 19.5375C18.3747 19.4004 18.5789 19.111 18.6323 18.9364L18.6139 18.9289C18.305 19.1365 18.2177 19.8936 17.7132 19.3776C17.8267 19.0105 18.1502 18.3512 18.4485 18.0971C18.4267 17.8049 18.4896 17.5106 18.5571 17.2256C18.7502 17.1806 18.8362 17.2014 19.0342 17.226C19.372 17.2679 19.6799 17.2347 19.9962 17.1078Z" fill="white"/>
<path d="M12.8088 2.36653C13.3524 2.38037 13.5875 2.89792 13.4003 3.36972C13.3865 3.40453 13.2626 3.48841 13.226 3.56412C13.5623 3.50993 13.6022 3.71195 13.6817 3.97467C13.7637 4.24576 13.8555 4.51755 13.9473 4.78574C13.8594 4.79651 13.4092 4.86181 13.3508 4.83259C13.1791 4.70287 13.1816 4.33279 13.1147 4.14189C13.0219 3.87697 12.823 3.89411 12.5845 3.98696L12.573 4.03378C12.6652 4.25677 12.797 4.78239 12.8667 5.03881C12.7371 5.08625 12.4425 5.17238 12.3128 5.13518C12.2466 5.0254 12.0928 4.46671 12.0449 4.30388L11.5684 2.68689C11.8551 2.56834 12.5089 2.38334 12.8088 2.36653ZM12.5635 3.55779C12.7964 3.44161 12.9367 3.29557 12.8127 2.99586C12.7799 2.91666 12.6799 2.87047 12.591 2.87538C12.4995 2.89054 12.4301 2.89371 12.3521 2.9411C12.2841 3.05725 12.4174 3.43707 12.4901 3.54963C12.5389 3.572 12.5147 3.57214 12.5635 3.55779Z" fill="white"/>
<path d="M9.14843 3.79023C9.19725 3.80732 9.24326 3.85931 9.26859 3.90178C9.67544 4.58416 10.1195 5.27205 10.5095 5.96142C10.392 6.07112 10.1703 6.20605 10.0285 6.29491C9.61304 6.00812 9.12172 5.50843 8.66789 5.21788C8.89071 5.55853 9.42772 6.2092 9.58211 6.5527C9.4618 6.66488 9.39751 6.71265 9.2611 6.8078L9.16756 6.83202C9.04862 6.77722 7.80812 4.86056 7.7229 4.64996C7.78018 4.60432 8.1883 4.28616 8.26068 4.33709C8.69399 4.64194 9.09405 4.99798 9.53039 5.30466C9.46146 5.19867 9.36967 5.08849 9.29351 4.97283C9.09711 4.66931 8.91177 4.3591 8.73785 4.04277C8.86747 3.97045 9.02038 3.86973 9.14843 3.79023Z" fill="white"/>
<path d="M25.3949 4.63132C25.5499 4.67165 25.8244 4.85163 25.955 4.94896C25.8726 5.32371 25.6603 5.71132 25.5775 6.0932C25.5618 6.1662 25.4739 6.28579 25.4459 6.38867L25.4691 6.39508C25.5892 6.29755 25.6664 6.14879 25.7619 6.02981C25.9488 5.79691 26.1505 5.47886 26.372 5.28271C26.4952 5.38642 26.6371 5.52105 26.7576 5.6307C26.6211 5.82134 25.2609 7.51466 25.1603 7.55246C25.0986 7.55682 25.064 7.52194 25.0103 7.48599C24.8652 7.3946 24.7763 7.33781 24.6449 7.2306L25.2875 5.60637C25.1895 5.70512 25.0456 5.92229 24.9551 6.04291C24.7193 6.35792 24.4809 6.67122 24.2402 6.98276C24.1282 6.87224 23.9363 6.74169 23.8055 6.65303L24.9039 5.24325C25.023 5.09109 25.2724 4.73742 25.3949 4.63132Z" fill="white"/>
<path d="M14.5881 1.93116C14.8053 1.90172 15.0987 1.91767 15.2769 2.04894C15.5142 2.22373 15.5049 2.43801 15.5405 2.69066C15.4016 2.71227 15.1682 2.76261 15.0356 2.75022C14.8874 2.73634 14.9576 2.38525 14.7254 2.38079C14.5463 2.32244 14.3801 2.62345 14.4389 2.79793C14.5385 3.09379 14.4183 4.19622 14.8651 4.20309C14.9557 4.20448 15.0937 4.04485 15.1488 3.96958C15.157 3.83992 15.1541 3.75283 15.1485 3.62274C15.0515 3.61927 14.9441 3.6248 14.8581 3.58799C14.8252 3.4986 14.8004 3.22781 14.8421 3.14666C14.9182 3.12446 15.1955 3.12442 15.2993 3.1187L15.6479 3.06763C15.6848 3.48682 15.682 4.08988 15.7964 4.48492C15.6645 4.49818 15.5145 4.51729 15.3836 4.51473C15.3255 4.46951 15.3477 4.45256 15.3244 4.35679C15.205 4.38818 15.1162 4.63016 14.8364 4.66776C13.9186 4.79103 13.9336 3.72025 13.8657 3.099C13.7928 2.43246 13.8132 2.05933 14.5881 1.93116Z" fill="white"/>
<path d="M27.0851 6.2748C27.5894 6.23716 28.1037 6.68109 28.0751 7.19338C28.0626 7.41762 27.8978 7.57287 27.7319 7.71057C27.5906 7.58634 27.4545 7.43977 27.3336 7.29675C27.4983 7.14104 27.5733 6.85582 27.3945 6.81476C27.0817 6.74291 26.1961 7.74134 26.0991 7.94608C26.3178 8.35501 26.4978 8.21046 26.788 7.97554C26.7332 7.90371 26.6447 7.81441 26.5812 7.74626C26.6608 7.63111 26.6921 7.60089 26.7912 7.5034C26.8426 7.45811 26.8449 7.44688 26.9136 7.43935C27.0746 7.48092 27.3945 7.83675 27.5259 7.96927C27.206 8.27539 26.8471 8.65851 26.5216 8.97893C26.3892 8.87334 26.3176 8.80768 26.1981 8.68759C26.2589 8.66246 26.3103 8.65165 26.3422 8.59838C26.3114 8.55809 26.0046 8.51064 25.9093 8.44815C25.1593 7.95654 25.8129 7.23198 26.2718 6.82817C26.5502 6.58352 26.6963 6.3613 27.0851 6.2748Z" fill="white"/>
<path d="M22.4948 2.97431C22.606 3.04516 22.9704 3.17649 22.9993 3.24732C22.8677 3.5896 22.672 3.8786 22.5371 4.1882C22.7562 4.01903 23.2655 3.62828 23.4933 3.50041C23.69 3.57592 23.8434 3.63371 24.0117 3.76018C23.7811 3.97035 23.2345 4.24943 23.0642 4.42489C22.9368 4.55611 22.8997 5.92013 22.9084 6.12199C22.8005 6.07136 22.3507 5.87533 22.336 5.81227C22.2965 5.64423 22.4228 4.84534 22.4686 4.69049C22.0482 5.01792 22.0733 5.20618 21.7942 5.59568C21.6678 5.53061 21.508 5.44193 21.3762 5.39877C21.3135 5.35224 21.3298 5.38115 21.3143 5.3163C21.3363 5.24736 21.3472 5.2379 21.3899 5.18148C21.7132 4.46099 22.1634 3.71468 22.4948 2.97431Z" fill="white"/>
<path d="M21.3899 5.18148C21.4266 5.24162 21.4 5.33744 21.3762 5.39877C21.3135 5.35224 21.3298 5.38115 21.3143 5.3163C21.3363 5.24736 21.3472 5.2379 21.3899 5.18148Z" fill="white"/>
<path d="M5.58838 6.52989C5.94067 6.49991 6.08168 6.51544 6.29834 6.79179C6.20033 6.97323 6.08809 7.06397 5.9387 7.20738C5.75438 7.06193 5.41158 6.9515 5.48607 7.35415C5.50365 7.44913 5.66545 7.50589 5.75639 7.5396C6.1103 7.43697 6.60744 7.18964 6.94713 7.36864C7.76704 7.80071 7.5868 8.71475 6.71374 8.96461C6.38567 8.97356 6.15891 8.86582 5.97471 8.60015C6.10701 8.43757 6.17761 8.36163 6.33486 8.22351C6.38396 8.25914 6.43342 8.29426 6.48325 8.32891C6.77489 8.53131 6.97529 8.41968 6.86944 8.08139C6.75943 7.72976 6.27341 7.9628 6.02488 8.03067C4.835 8.35563 4.53752 6.87534 5.58838 6.52989Z" fill="white"/>
<path d="M10.9612 2.92863L11.0021 2.92851C11.1158 3.00693 11.1719 3.22496 11.2096 3.35582C11.007 3.43805 10.6213 3.59568 10.4416 3.69746C10.5134 3.84299 10.5943 3.993 10.6389 4.14775C10.7645 4.07856 11.2877 3.82244 11.4028 3.86454C11.4658 3.95017 11.545 4.17957 11.6004 4.29967C11.3649 4.40031 11.1113 4.52169 10.8672 4.5853C10.9561 4.79557 11.0251 4.95288 11.1319 5.15598C11.3083 5.0591 11.4895 4.97065 11.6748 4.89095C11.9506 4.77449 11.9692 4.7926 12.0606 5.05636C12.0921 5.13917 12.1021 5.15675 12.1098 5.24274C12.0408 5.33315 11.007 5.75426 10.7913 5.88406C10.5659 5.3502 10.3111 4.82085 10.0607 4.29782C9.93843 4.04226 9.8261 3.72563 9.68947 3.48515C9.85156 3.3943 10.8004 2.97508 10.9612 2.92863Z" fill="white"/>
<path d="M19.2008 2.09039C19.9704 2.16879 19.7293 2.09708 19.7428 2.82103C19.7515 3.29534 19.6326 3.70831 19.5894 4.16205C19.7491 3.85809 19.8801 3.53073 20.0244 3.21936C20.0625 3.1372 20.1459 2.9259 20.1864 2.85623C20.237 2.71923 20.3197 2.45767 20.4126 2.36063C20.547 2.3448 20.8971 2.42932 20.9701 2.54348L20.9487 2.60363C20.7564 3.05088 20.4827 3.55732 20.2677 3.99945C20.1707 4.19923 19.9266 4.70315 19.814 4.87794C19.5459 4.85082 19.3401 4.78241 19.0896 4.74606C19.1327 4.03103 19.1152 3.30576 19.1775 2.58979C19.1918 2.42548 19.2025 2.25523 19.2008 2.09039Z" fill="white"/>
<path d="M20.1864 2.85623C20.237 2.71923 20.3197 2.45767 20.4126 2.36063C20.547 2.3448 20.8971 2.42932 20.9701 2.54348L20.9487 2.60363C20.8425 2.36014 20.5714 2.48722 20.4714 2.44874C20.4619 2.42169 20.4561 2.40818 20.4396 2.38364L20.4196 2.39486C20.4005 2.48473 20.2542 2.79991 20.1864 2.85623Z" fill="white"/>
<path d="M3.47883 18.8028C4.1065 18.6949 4.51825 19.2313 4.28298 19.8014C4.16559 20.0857 3.4674 20.2326 3.15647 20.3197C2.98106 20.3543 2.83224 20.3679 2.65981 20.3126C2.49786 20.2619 2.36528 20.147 2.29462 19.9962C2.18407 19.7579 2.22013 19.4391 2.31798 19.2006C2.5653 18.9837 3.14962 18.8502 3.47883 18.8028ZM2.90578 19.8922C3.13468 19.856 3.89957 19.6824 3.94058 19.4309C3.90817 19.2708 3.80043 19.2364 3.64771 19.2551C3.3972 19.2905 2.26427 19.4708 2.76317 19.8751C2.78739 19.8948 2.87257 19.8951 2.90578 19.8922Z" fill="white"/>
<path d="M19.9272 27.8858C19.9746 27.8744 19.9506 27.8758 19.9998 27.8915C20.1014 28.0435 20.3846 29.5991 20.4398 29.872C20.3174 29.9053 20.0724 29.9827 19.955 29.9827C19.7995 29.8923 19.4095 29.1333 19.2518 28.9243C19.331 29.3354 19.4379 29.6695 19.4921 30.1078C19.3562 30.1485 19.1932 30.1741 19.0517 30.1872C19.0231 30.071 18.9511 29.7185 18.9304 29.6056C18.8755 29.3112 18.6107 28.4008 18.6264 28.1438C18.7161 28.0604 18.9793 28.0457 19.112 28.0298C19.1607 28.0815 19.2746 28.2478 19.301 28.2736C19.3853 28.3556 19.7928 29.0865 19.8289 29.0979C19.8408 29.0407 19.6116 28.1824 19.6001 27.9904L19.5987 27.9635L19.9272 27.8858Z" fill="white"/>
<path d="M7.83482 25.1927C7.98435 25.1872 8.20269 25.2651 8.32417 25.353C8.46715 25.4548 8.5593 25.611 8.57778 25.7826C8.61085 26.0852 8.41257 26.3285 8.22468 26.545C8.03061 26.7685 7.81936 27.0405 7.49983 27.0737C7.29749 27.0802 7.15743 27.0672 6.97872 26.9546C6.83207 26.8629 6.73228 26.7149 6.70435 26.5473C6.62828 26.1023 7.37781 25.2723 7.83482 25.1927ZM7.37285 26.6736C7.5953 26.5536 8.49639 25.7561 7.92544 25.5775C7.78724 25.6583 7.69118 25.7958 7.58327 25.9108C7.458 26.0445 6.84456 26.6409 7.37285 26.6736Z" fill="white"/>
<path d="M15.7824 1.85471C15.9395 1.87771 16.3039 1.86566 16.4874 1.87177C16.5378 1.99721 16.7411 2.65531 16.7853 2.81297C16.8657 2.61081 17.039 2.05759 17.1412 1.91429C17.2325 1.85396 17.6556 1.8959 17.7827 1.90172C17.6924 2.22814 17.3994 2.77172 17.2349 3.094C17.0201 3.51107 17.0598 4.05816 17.0475 4.51969C16.831 4.4935 16.7002 4.50293 16.4833 4.52039C16.485 4.35978 16.5015 3.5824 16.4731 3.47925C16.3307 2.96357 15.9695 2.381 15.7824 1.85471Z" fill="white"/>
<path d="M14.1315 28.029C14.2829 28.0648 14.4813 28.0545 14.6751 28.0909C14.6972 28.2185 14.9246 29.2654 14.9597 29.2851C15.0301 29.1783 15.0801 28.3951 15.0995 28.2052C15.2467 28.2122 15.3937 28.2205 15.5407 28.2297C15.4931 28.8535 15.3753 29.5328 15.2916 30.158C15.2858 30.2014 15.251 30.2055 15.216 30.2193L14.7648 30.1989C14.6326 29.7403 14.574 29.2603 14.4626 28.8151C14.433 28.9695 14.4283 29.1502 14.4074 29.3097C14.3727 29.573 14.3365 29.8357 14.2997 30.0986C14.1297 30.0598 14.0123 30.0496 13.838 30.0378C13.9295 29.374 14.0187 28.6893 14.1315 28.029Z" fill="white"/>
<path d="M9.06057 26.0032C9.60339 26.2305 10.6049 26.7762 9.61103 27.4074C9.5949 27.4176 9.49121 27.3734 9.43278 27.407C9.4489 27.4377 9.51856 27.5692 9.51725 27.5934C9.50511 27.8188 9.22375 28.213 9.1082 28.378C8.97753 28.3049 8.8462 28.2219 8.71824 28.1436C8.77554 28.048 8.84119 27.9104 8.89306 27.8089C9.05481 27.5101 9.13636 27.444 8.81516 27.2389C8.64463 27.4505 8.50593 27.6996 8.34307 27.9234C8.21094 27.8382 8.06774 27.7537 7.933 27.6711C8.12608 27.3411 8.39787 26.9764 8.61204 26.6504C8.71199 26.4982 8.95262 26.1285 9.06057 26.0032ZM9.32489 27.0757C9.64052 26.8338 9.52749 26.718 9.23808 26.5515C9.02214 26.8625 8.9474 26.9103 9.32489 27.0757Z" fill="white"/>
<path d="M7.38786 4.88576C7.4785 4.90265 7.52093 5.18925 7.55098 5.28881C7.6547 5.59576 7.7101 6.01514 7.86375 6.29725C8.05631 6.65084 8.37738 6.99222 8.60797 7.33213C8.446 7.4811 8.32538 7.58386 8.15208 7.72009C7.97784 7.4888 7.52302 6.84079 7.30595 6.72098C7.02122 6.58937 6.19386 6.30809 5.99356 6.16466L5.99209 6.12807C6.04648 6.05889 6.42391 5.73816 6.52753 5.72233C6.71231 5.76486 7.19665 6.13886 7.36898 6.26528C7.24648 6.04373 6.98521 5.52343 6.9245 5.29243L6.98178 5.24928C7.13069 5.13893 7.2542 5.01334 7.38786 4.88576Z" fill="white"/>
<path d="M26.3998 24.3358C26.579 24.461 27.1075 25.022 27.2889 25.1909C27.4025 25.2969 27.7214 25.5999 27.8224 25.7075C27.7186 25.8446 27.6146 25.9431 27.482 26.0514C27.1589 25.9669 26.6062 25.7167 26.2835 25.5748C26.5075 25.8188 26.8731 26.1159 27.1333 26.3902C27.0692 26.451 27.0049 26.5186 26.9428 26.5817C26.8973 26.6248 26.8914 26.6392 26.8303 26.6541C26.7215 26.6285 25.562 25.4532 25.4064 25.2916C25.5326 25.1642 25.663 25.0409 25.7974 24.9219C26.06 25.0205 26.5371 25.259 26.7777 25.3138C26.6622 25.2033 26.263 24.779 26.1826 24.651C26.1785 24.5403 26.318 24.4223 26.3998 24.3358Z" fill="white"/>
<path d="M24.2416 26.1749C24.9585 26.1277 24.7427 26.7619 24.8568 26.9119C25.1039 27.0137 25.3754 27.4344 25.5197 27.655C25.4197 27.7389 25.2385 27.838 25.1192 27.9116C24.9743 27.7281 24.8009 27.4562 24.6806 27.2572C24.5524 27.3215 24.4621 27.3695 24.341 27.4446L24.4887 27.6937C24.712 28.1104 24.8757 28.1155 24.3698 28.366C24.2128 28.1749 23.4237 26.8462 23.3482 26.6565C23.6225 26.4695 23.9153 26.2502 24.2416 26.1749ZM24.1808 27.117C24.3126 27.0261 24.4823 26.9044 24.4035 26.7231C24.3408 26.6567 24.27 26.638 24.1806 26.6464C24.1054 26.6569 24.054 26.6549 23.9969 26.7021C23.9262 26.8311 24.0598 27.078 24.1612 27.1225L24.1808 27.117Z" fill="white"/>
<path d="M16.5898 28.2231C16.8532 28.2093 17.0479 28.2984 17.2381 28.469C17.2621 28.6323 17.274 28.729 17.3246 28.8845C17.2043 28.8826 17.0547 28.8944 16.938 28.8869C16.7316 28.8733 16.8389 28.6098 16.5775 28.6018C16.3716 28.6755 16.3695 29.1046 16.3686 29.2878C16.368 29.4387 16.3353 29.9271 16.4812 30.0044C16.6514 30.0946 16.8754 29.8036 16.824 29.6194C16.7653 29.5576 16.6984 29.5623 16.6007 29.5441C16.5813 29.173 16.5932 29.2051 16.9697 29.1923C17.0886 29.1872 17.2075 29.1803 17.3264 29.1718C17.2871 29.537 17.3347 29.967 17.2899 30.3583C17.1795 30.3571 17.0638 30.3632 16.9586 30.3359C16.9378 30.3041 16.9213 30.2793 16.8985 30.2488L16.8298 30.3227C16.4575 30.4195 16.1869 30.3925 15.9286 30.098C15.8811 29.9143 15.8692 29.734 15.8748 29.5448C15.8936 28.9136 15.7157 28.2828 16.5898 28.2231Z" fill="white"/>
<path d="M6.63737 23.8257C6.80081 23.8459 6.8601 23.9987 6.93812 24.1264C6.79327 24.3114 6.58888 24.4359 6.40172 24.5869C6.5087 24.6738 6.63904 24.8187 6.73111 24.9208C6.85366 24.769 7.09205 24.5698 7.2671 24.4825C7.42691 24.5853 7.46131 24.6347 7.57539 24.7788C7.50464 24.8757 6.14059 26.0966 6.11832 26.1016L6.07186 26.0668C5.95555 25.9682 5.87315 25.8748 5.78036 25.7563C5.95456 25.5712 6.20676 25.3911 6.40593 25.1964C6.30038 25.0971 6.19737 24.9953 6.09701 24.8911C5.91648 25.0527 5.65556 25.2963 5.45729 25.4188C5.37329 25.3296 5.24105 25.2106 5.22049 25.0962C5.30097 24.8688 6.3921 23.9637 6.63737 23.8257Z" fill="white"/>
<path d="M27.4846 23.2653C27.6376 23.2523 27.773 23.2903 27.8843 23.3917C27.9352 23.5427 27.7857 23.6562 27.6696 23.7362C27.5799 23.798 27.4932 23.7227 27.3671 23.7325C26.8896 23.9232 28.027 24.6282 28.1995 24.706C28.3893 24.5843 28.5415 24.3285 28.2243 24.2023C28.1652 24.1787 28.085 24.2449 28.0328 24.2821C27.9465 24.2266 27.8643 24.1686 27.7805 24.11C27.8931 23.9368 28.0663 23.7309 28.2114 23.5815C28.3299 23.6531 28.4772 23.7683 28.5917 23.8532C28.7727 23.9734 28.9462 24.0917 29.1127 24.2308C29.053 24.3285 29.0281 24.3997 28.9245 24.4345C28.8463 24.4191 28.7936 24.357 28.7334 24.3021C28.7545 24.4298 28.7918 24.6319 28.7167 24.741C28.4847 25.0783 28.0265 25.1915 27.6799 24.9567C27.2296 24.652 26.5294 24.1944 26.9515 23.5897C27.0905 23.3903 27.2504 23.307 27.4846 23.2653Z" fill="white"/>
<path d="M21.5356 27.4106L21.5765 27.4121C21.66 27.4754 21.6721 27.7031 21.6872 27.8111C21.477 27.8909 21.2422 27.9631 21.0269 28.0339C21.0525 28.1365 21.0954 28.2657 21.1265 28.3694C21.3419 28.307 21.5566 28.2423 21.7706 28.1755C21.9764 28.7905 21.7597 28.5768 21.2514 28.7843C21.3206 28.9598 21.3308 29.0316 21.3677 29.2216C21.5789 29.125 21.8843 29.0564 22.1153 28.9972L22.184 29.2271L22.2422 29.3903C21.8589 29.5128 21.4028 29.6548 21.0142 29.743C20.9054 29.255 20.7032 28.7461 20.5821 28.2567C20.5426 28.0972 20.4996 27.9086 20.4408 27.7584C20.6677 27.6912 21.3633 27.4969 21.5356 27.4106Z" fill="white"/>
<path d="M10.5058 26.8283C10.6928 26.9351 11.4845 27.2415 11.5594 27.3356C11.5553 27.4678 11.4817 27.583 11.418 27.6994C11.1902 27.6082 10.9737 27.5006 10.7529 27.3942C10.6919 27.5167 10.6535 27.6149 10.6042 27.7425C10.7385 27.8319 11.0011 27.944 11.1571 28.0131C11.115 28.1627 11.0905 28.264 11.0221 28.4032C10.8034 28.3416 10.5794 28.2292 10.3911 28.1051L10.2735 28.3792C10.2401 28.4329 10.2227 28.45 10.2215 28.5131C10.2693 28.5621 10.7438 28.7729 10.8463 28.8206C10.8047 28.9569 10.77 29.0658 10.7177 29.1982C10.4342 29.1054 9.88463 28.8354 9.60436 28.6907C9.78581 28.1833 10.2181 27.2855 10.5058 26.8283Z" fill="white"/>
<path d="M12.6586 27.6528C13.029 27.7403 13.4217 27.8449 13.7873 27.9173C13.7797 28.0543 13.7529 28.2211 13.7322 28.3572C13.503 28.2807 13.2499 28.2258 13.0131 28.1503L12.9146 28.5379C13.0657 28.5774 13.3638 28.6169 13.4533 28.6893C13.529 28.8185 13.4764 28.9486 13.4473 29.1044C13.24 29.0713 13.0021 28.9966 12.7975 28.9386C12.7522 29.0267 12.7405 29.068 12.7117 29.1634C12.6942 29.2308 12.6653 29.3144 12.6441 29.3824C12.8532 29.3981 13.1758 29.4884 13.3793 29.549C13.3317 29.6685 13.3146 29.8071 13.2926 29.9346C13.0216 29.8575 12.3536 29.7533 12.1276 29.6528C12.0627 29.5187 12.569 27.913 12.6586 27.6528Z" fill="white"/>
<path d="M29.7363 18.7448C29.9399 18.7315 30.2952 18.7885 30.4506 18.925C30.5762 19.2708 30.5465 19.4045 30.4536 19.7489L31.1298 19.9319C31.0528 20.3905 31.0436 20.3968 30.5818 20.2532C30.497 20.2436 30.0939 20.1284 30.0064 20.104C29.6817 20.0114 29.3556 19.9239 29.0281 19.8411C29.1603 19.5471 29.1945 19.1759 29.3755 18.9185C29.4731 18.7794 29.5803 18.761 29.7363 18.7448ZM30.0219 19.6083C30.0616 19.6059 30.0977 19.6155 30.1152 19.587C30.2867 19.3094 29.9647 19.123 29.7339 19.1218C29.3691 19.5033 29.6831 19.5359 30.0219 19.6083Z" fill="white"/>
<path d="M22.9269 26.8415C22.942 26.8387 22.9578 26.845 22.9751 26.849C23.0656 26.9536 23.0833 27.0619 23.1133 27.1931L22.4817 27.4719C22.5409 27.5718 22.5905 27.6965 22.6377 27.804C22.8026 27.7244 23.2133 27.4467 23.3312 27.6485C23.3635 27.7035 23.4018 27.8491 23.4207 27.9169C23.2933 28.0083 22.9886 28.1153 22.8294 28.1774C22.8781 28.3269 22.9184 28.4441 22.9483 28.5978C23.1264 28.5101 23.5566 28.2984 23.739 28.3351C23.8055 28.3855 23.7853 28.3719 23.8212 28.4588C23.8357 28.5105 23.8736 28.5894 23.8391 28.6352C23.7277 28.7831 23.5044 28.812 23.3453 28.8885C23.1577 28.9791 22.9759 29.08 22.7727 29.1311C22.699 29.0833 21.9687 27.478 21.8819 27.2953C22.1713 27.186 22.6385 26.9711 22.9269 26.8415Z" fill="white"/>
<path d="M5.43542 22.789C5.65253 22.7759 5.83107 22.7595 6.02181 22.8921C6.16433 22.9929 6.25737 23.1471 6.27851 23.3174C6.29874 23.4818 6.23405 23.8125 6.02014 23.8218C5.93916 23.7933 5.78892 23.5972 5.72723 23.5239C5.83409 23.4232 5.88798 23.3835 5.82133 23.2376C5.60223 23.0578 5.47724 23.3931 5.54682 23.6175C5.69524 24.0963 5.49506 24.6704 4.87074 24.53C4.52036 24.4547 4.22517 24.0668 4.30656 23.7311C4.4319 23.2138 4.61562 23.1259 4.91611 23.577C4.83545 23.7231 4.62569 24.0217 4.87949 24.1305C5.05709 24.1169 5.08553 24.0363 5.14664 23.8894C5.10609 23.4128 4.83704 23.1265 5.43542 22.789Z" fill="white"/>
<path d="M24.4831 4.01766C24.6631 4.08259 24.8273 4.18281 24.9892 4.28182C24.8807 4.42444 24.7735 4.63075 24.6679 4.78308C24.311 5.29785 23.9425 5.98218 23.5668 6.46544C23.4723 6.46758 23.1766 6.27643 23.0783 6.21903C23.4471 5.56276 23.8728 4.93787 24.2771 4.30246C24.342 4.20057 24.3926 4.10044 24.4831 4.01766Z" fill="white"/>
<path d="M21.4324 2.59761C21.6134 2.63726 21.8017 2.68988 21.9816 2.73709C21.9399 2.86703 21.8863 3.01057 21.8337 3.13691C21.5531 3.8104 21.3276 4.54969 21.0352 5.21422C20.905 5.16565 20.6405 5.09911 20.4928 5.05326C20.6085 4.74232 21.3212 2.73449 21.4324 2.59761Z" fill="white"/>
<path d="M4.47973 20.2288C4.6055 20.2766 4.89106 21.0848 4.95513 21.2486C4.80302 21.2995 4.73137 21.3082 4.5741 21.3249C4.48751 21.167 4.42088 20.9458 4.32812 20.7694C4.17938 20.8278 4.08461 20.8716 3.94218 20.9442C4.01004 21.0577 4.17432 21.3689 4.15846 21.4914C4.07981 21.6159 3.98386 21.5701 3.85404 21.5518C3.79982 21.5441 3.76342 21.459 3.73909 21.4142C3.71092 21.3101 3.65601 21.1601 3.62104 21.0539C3.40357 21.1493 3.0011 21.3361 2.78582 21.3959C2.7263 21.2523 2.6814 21.0893 2.63627 20.9397C3.12384 20.6929 3.96664 20.4805 4.47973 20.2288Z" fill="white"/>
<path d="M5.07983 21.4863L5.11859 21.5009C5.21892 21.6287 5.53229 22.2406 5.58713 22.3962C5.5805 22.438 5.5888 22.4426 5.54898 22.4709C5.19004 22.7259 5.09938 22.2811 4.96275 22.0159C4.81785 22.0892 4.7014 22.1464 4.5515 22.2084C4.64821 22.3794 4.73495 22.595 4.81422 22.7772C4.71804 22.8384 4.63295 22.9066 4.52226 22.917C4.44916 22.8854 4.48197 22.9084 4.43156 22.8327C4.3614 22.7116 4.29914 22.5008 4.25841 22.3672C4.12095 22.4508 3.59712 22.7564 3.46148 22.6958C3.40212 22.6187 3.35869 22.4516 3.34956 22.3564C3.43251 22.1769 4.79625 21.609 5.07983 21.4863Z" fill="white"/>
<path d="M28.7791 20.5745C29.0692 20.6664 30.1217 21.1359 30.301 21.1609C30.3708 21.0588 30.4518 20.7757 30.5242 20.6363C30.9833 20.7991 30.9085 20.8152 30.7553 21.2395C30.7316 21.3278 30.5877 21.7125 30.5121 21.7561C30.1491 21.6548 28.9398 21.1471 28.6425 20.9666C28.6778 20.8441 28.7114 20.6766 28.7791 20.5745Z" fill="white"/>
<path d="M28.2188 21.8485C28.4615 21.8985 29.3981 22.442 29.6529 22.5969C29.8794 22.1738 29.777 21.9777 30.3164 22.1911C30.2672 22.3368 30.2249 22.4064 30.1485 22.5421C30.0398 22.7324 29.9328 22.9495 29.8312 23.1455C29.3419 22.9752 28.5111 22.5159 28.0626 22.2636C28.1112 22.0914 28.142 22.0088 28.2188 21.8485Z" fill="white"/>
<path d="M17.7378 28.1999C17.8863 28.1977 18.0349 28.1971 18.1834 28.1979C18.2427 28.5174 18.4031 29.9304 18.3701 30.2433C18.2134 30.2592 18.0548 30.2612 17.8974 30.2655C17.8992 29.8392 17.8351 29.348 17.7997 28.9193C17.7807 28.6905 17.7275 28.4293 17.7378 28.1999Z" fill="white"/>
<path d="M25.0303 25.5148C25.1946 25.549 26.1848 26.8313 26.3454 27.0309C26.2571 27.0969 26.1358 27.21 26.0501 27.2859C26.0429 27.29 26.004 27.2985 25.9941 27.301C25.8585 27.2267 24.8533 25.9698 24.7651 25.7734C24.856 25.6741 24.9301 25.6056 25.0303 25.5148Z" fill="white"/>
<path d="M17.7642 3.21352C17.9488 3.23816 18.5887 3.30006 18.705 3.37997C18.7133 3.4696 18.6623 3.73024 18.6456 3.83217C18.5075 3.83839 17.7902 3.76323 17.7134 3.69396C17.6995 3.56172 17.7354 3.34585 17.7642 3.21352Z" fill="white"/>
<path d="M25.5569 22.2998C25.7252 22.3442 25.8994 22.4312 26.0507 22.5153C25.8917 22.5019 25.7343 22.4673 25.5829 22.4599C25.5787 22.3802 25.5791 22.3757 25.5569 22.2998Z" fill="white"/>
<path d="M8.27312 18.756C8.28128 18.8284 8.2687 18.9922 8.21499 19.0457C8.10766 18.9607 8.15839 18.7177 8.21481 18.6166C8.23065 18.6658 8.24034 18.7285 8.27312 18.756Z" fill="white"/>
<path d="M26.8696 21.2795C27.0365 21.3778 27.1704 21.479 27.3252 21.5931C27.1947 21.5469 27.0531 21.4914 26.918 21.4672C26.9315 21.4336 26.9366 21.4155 26.947 21.3811C26.9196 21.3388 26.9015 21.318 26.8696 21.2795Z" fill="white"/>
<path d="M11.8633 22.6945C11.9942 22.7269 12.0767 22.7584 12.2177 22.7869L12.1687 22.8954L11.8633 22.6945Z" fill="white"/>
<path d="M22.1715 17.7404C22.1626 17.7123 22.1632 17.7272 22.1719 17.696C22.2265 17.6826 22.267 17.6604 22.3043 17.6795L22.2658 17.7119L22.1715 17.7404Z" fill="white"/>
</svg>
